<?xml version="1.0" encoding="UTF-8"?><svg id="Layer_1" xmlns="http://www.w3.org/2000/svg" viewBox="0 0 745.3 140.52"><defs><style>.cls-1,.cls-2{fill:#fff;}.cls-3{fill:#ec1c29;}.cls-4{fill:#a6a6a6;}.cls-5{isolation:isolate;}.cls-2{stroke:#fff;stroke-miterlimit:10;stroke-width:.43px;}.cls-6{fill:#fbbc04;}.cls-7{fill:#4285f4;}.cls-8{fill:#b6b6b6;}.cls-9{fill:#34a853;}.cls-10{fill:none;stroke:#707070;}.cls-11{fill:#ea4335;}.cls-12{fill:#666;}.cls-13{fill:#58595b;}</style></defs><path class="cls-12" d="M173.01,4.07h9.79c2.39,0,4.51,.46,6.37,1.39s3.3,2.24,4.32,3.94c1.02,1.7,1.54,3.65,1.54,5.87s-.51,4.18-1.54,5.87c-1.02,1.7-2.46,3.01-4.32,3.94-1.86,.93-3.98,1.39-6.37,1.39h-9.79V4.07Zm9.6,18.88c1.64,0,3.09-.32,4.34-.94s2.21-1.53,2.88-2.69c.67-1.16,1.01-2.51,1.01-4.05s-.34-2.88-1.01-4.05c-.67-1.16-1.63-2.06-2.88-2.69-1.25-.63-2.69-.94-4.34-.94h-5.44v15.36h5.44Z"/><path class="cls-12" d="M202.06,25.57c-1.39-.75-2.47-1.79-3.25-3.12s-1.17-2.84-1.17-4.53,.39-3.19,1.17-4.51c.78-1.32,1.86-2.36,3.25-3.1,1.39-.75,2.94-1.12,4.67-1.12s3.32,.37,4.7,1.12c1.39,.75,2.47,1.78,3.25,3.1,.78,1.32,1.17,2.83,1.17,4.51s-.39,3.2-1.17,4.53-1.86,2.37-3.25,3.12c-1.39,.75-2.95,1.12-4.7,1.12s-3.29-.37-4.67-1.12Zm8.32-3.78c.96-.98,1.44-2.27,1.44-3.87s-.48-2.89-1.44-3.87-2.18-1.47-3.65-1.47-2.68,.49-3.63,1.47-1.42,2.27-1.42,3.87,.47,2.89,1.42,3.87,2.16,1.47,3.63,1.47,2.69-.49,3.65-1.47Z"/><path class="cls-12" d="M245.87,9.38l-6.3,17.09h-3.84l-4.42-11.78-4.48,11.78h-3.84l-6.27-17.09h3.78l4.51,12.61,4.7-12.61h3.36l4.61,12.67,4.64-12.67h3.55Z"/><path class="cls-12" d="M263.5,11.08c1.3,1.26,1.95,3.12,1.95,5.6v9.79h-4v-9.28c0-1.49-.35-2.62-1.06-3.38-.7-.76-1.71-1.14-3.01-1.14-1.47,0-2.64,.44-3.49,1.33-.85,.89-1.28,2.16-1.28,3.82v8.64h-4V9.38h3.81v2.21c.66-.79,1.49-1.39,2.5-1.79,1-.41,2.13-.61,3.39-.61,2.15,0,3.88,.63,5.18,1.89Z"/><path class="cls-12" d="M270.54,2.73h4V26.47h-4V2.73Z"/><path class="cls-12" d="M282.8,25.57c-1.39-.75-2.47-1.79-3.25-3.12s-1.17-2.84-1.17-4.53,.39-3.19,1.17-4.51c.78-1.32,1.86-2.36,3.25-3.1,1.39-.75,2.94-1.12,4.67-1.12s3.32,.37,4.7,1.12c1.39,.75,2.47,1.78,3.25,3.1,.78,1.32,1.17,2.83,1.17,4.51s-.39,3.2-1.17,4.53-1.86,2.37-3.25,3.12c-1.39,.75-2.95,1.12-4.7,1.12s-3.29-.37-4.67-1.12Zm8.32-3.78c.96-.98,1.44-2.27,1.44-3.87s-.48-2.89-1.44-3.87-2.18-1.47-3.65-1.47-2.68,.49-3.63,1.47-1.42,2.27-1.42,3.87,.47,2.89,1.42,3.87,2.16,1.47,3.63,1.47,2.69-.49,3.65-1.47Z"/><path class="cls-12" d="M312.51,11c1.33,1.21,2,3.02,2,5.46v10.02h-3.78v-2.08c-.49,.75-1.19,1.32-2.1,1.71-.91,.39-2,.59-3.28,.59s-2.4-.22-3.36-.66c-.96-.44-1.7-1.04-2.22-1.82-.52-.78-.78-1.66-.78-2.64,0-1.54,.57-2.77,1.71-3.7,1.14-.93,2.94-1.39,5.39-1.39h4.42v-.26c0-1.19-.36-2.11-1.07-2.75-.71-.64-1.78-.96-3.18-.96-.96,0-1.9,.15-2.83,.45-.93,.3-1.71,.71-2.35,1.25l-1.57-2.91c.9-.68,1.97-1.21,3.23-1.57,1.26-.36,2.59-.54,4-.54,2.52,0,4.44,.6,5.78,1.81Zm-3.65,12.1c.78-.46,1.33-1.11,1.65-1.97v-1.98h-4.13c-2.3,0-3.46,.76-3.46,2.27,0,.73,.29,1.3,.86,1.73s1.38,.64,2.4,.64,1.89-.23,2.67-.69Z"/><path class="cls-12" d="M336.53,2.73V26.47h-3.84v-2.21c-.66,.81-1.48,1.42-2.45,1.82s-2.04,.61-3.22,.61c-1.64,0-3.12-.36-4.43-1.09-1.31-.72-2.34-1.75-3.09-3.09-.75-1.33-1.12-2.86-1.12-4.59s.37-3.25,1.12-4.58c.75-1.32,1.78-2.35,3.09-3.07,1.31-.72,2.79-1.09,4.43-1.09,1.13,0,2.17,.19,3.1,.58,.94,.38,1.74,.96,2.4,1.73V2.73h4Zm-6.43,19.89c.77-.44,1.38-1.06,1.82-1.87,.45-.81,.67-1.75,.67-2.82s-.22-2-.67-2.82c-.45-.81-1.06-1.43-1.82-1.87-.77-.44-1.63-.66-2.59-.66s-1.82,.22-2.59,.66c-.77,.44-1.38,1.06-1.82,1.87-.45,.81-.67,1.75-.67,2.82s.22,2.01,.67,2.82c.45,.81,1.06,1.43,1.82,1.87,.77,.44,1.63,.66,2.59,.66s1.82-.22,2.59-.66Z"/><path class="cls-12" d="M355.15,7.56v6.82h10.82v3.52h-10.82v8.58h-4.16V4.07h16.35v3.49h-12.19Z"/><path class="cls-12" d="M380.56,9.19v3.81c-.34-.06-.65-.1-.93-.1-1.56,0-2.77,.45-3.65,1.36-.88,.91-1.31,2.21-1.31,3.92v8.29h-4V9.38h3.81v2.5c1.15-1.79,3.18-2.69,6.08-2.69Z"/><path class="cls-12" d="M396.16,11c1.33,1.21,2,3.02,2,5.46v10.02h-3.78v-2.08c-.49,.75-1.19,1.32-2.1,1.71-.91,.39-2,.59-3.28,.59s-2.4-.22-3.36-.66c-.96-.44-1.7-1.04-2.22-1.82-.52-.78-.78-1.66-.78-2.64,0-1.54,.57-2.77,1.71-3.7,1.14-.93,2.94-1.39,5.39-1.39h4.42v-.26c0-1.19-.36-2.11-1.07-2.75-.71-.64-1.78-.96-3.18-.96-.96,0-1.9,.15-2.83,.45-.93,.3-1.71,.71-2.35,1.25l-1.57-2.91c.9-.68,1.97-1.21,3.23-1.57,1.26-.36,2.59-.54,4-.54,2.52,0,4.44,.6,5.78,1.81Zm-3.65,12.1c.78-.46,1.33-1.11,1.65-1.97v-1.98h-4.13c-2.3,0-3.46,.76-3.46,2.27,0,.73,.29,1.3,.86,1.73s1.38,.64,2.4,.64,1.89-.23,2.67-.69Z"/><path class="cls-12" d="M404.49,26.15c-1.32-.36-2.38-.82-3.17-1.38l1.54-3.04c.77,.51,1.69,.92,2.77,1.23,1.08,.31,2.14,.46,3.18,.46,2.39,0,3.58-.63,3.58-1.89,0-.6-.3-1.01-.91-1.25-.61-.23-1.58-.46-2.93-.67-1.41-.21-2.55-.46-3.44-.74-.89-.28-1.65-.76-2.3-1.46s-.98-1.66-.98-2.9c0-1.62,.68-2.92,2.03-3.89,1.35-.97,3.18-1.46,5.49-1.46,1.17,0,2.35,.13,3.52,.4,1.17,.27,2.13,.62,2.88,1.07l-1.54,3.04c-1.45-.85-3.08-1.28-4.9-1.28-1.17,0-2.06,.18-2.67,.53-.61,.35-.91,.82-.91,1.39,0,.64,.33,1.09,.98,1.36s1.66,.52,3.02,.75c1.37,.21,2.49,.46,3.36,.74,.87,.28,1.63,.75,2.26,1.41,.63,.66,.94,1.6,.94,2.82,0,1.6-.69,2.88-2.08,3.84s-3.28,1.44-5.66,1.44c-1.39,0-2.74-.18-4.06-.54Z"/><path class="cls-12" d="M435.76,19.21h-13.41c.24,1.26,.85,2.26,1.84,2.99,.99,.74,2.22,1.1,3.7,1.1,1.88,0,3.42-.62,4.64-1.86l2.14,2.46c-.77,.92-1.74,1.61-2.91,2.08-1.17,.47-2.5,.7-3.97,.7-1.88,0-3.53-.37-4.96-1.12-1.43-.75-2.53-1.79-3.31-3.12s-1.17-2.84-1.17-4.53,.38-3.16,1.14-4.5c.76-1.33,1.81-2.37,3.15-3.12,1.34-.75,2.86-1.12,4.54-1.12s3.15,.37,4.46,1.1c1.31,.74,2.34,1.77,3.07,3.1,.74,1.33,1.1,2.88,1.1,4.62,0,.28-.02,.67-.06,1.18Zm-11.82-5.68c-.89,.76-1.42,1.77-1.62,3.02h9.7c-.17-1.24-.69-2.24-1.57-3.01-.88-.77-1.96-1.15-3.26-1.15s-2.36,.38-3.25,1.14Z"/><path class="cls-12" d="M449.55,9.19v3.81c-.34-.06-.65-.1-.93-.1-1.56,0-2.77,.45-3.65,1.36-.88,.91-1.31,2.21-1.31,3.92v8.29h-4V9.38h3.81v2.5c1.15-1.79,3.18-2.69,6.08-2.69Z"/><path class="cls-12" d="M454.22,26.15c-1.32-.36-2.38-.82-3.17-1.38l1.54-3.04c.77,.51,1.69,.92,2.77,1.23,1.08,.31,2.14,.46,3.18,.46,2.39,0,3.58-.63,3.58-1.89,0-.6-.3-1.01-.91-1.25s-1.58-.46-2.93-.67c-1.41-.21-2.55-.46-3.44-.74s-1.65-.76-2.3-1.46c-.65-.69-.98-1.66-.98-2.9,0-1.62,.68-2.92,2.03-3.89,1.35-.97,3.18-1.46,5.49-1.46,1.17,0,2.35,.13,3.52,.4,1.17,.27,2.13,.62,2.88,1.07l-1.54,3.04c-1.45-.85-3.08-1.28-4.9-1.28-1.17,0-2.06,.18-2.67,.53-.61,.35-.91,.82-.91,1.39,0,.64,.33,1.09,.98,1.36,.65,.27,1.66,.52,3.02,.75,1.37,.21,2.49,.46,3.36,.74,.87,.28,1.63,.75,2.26,1.41,.63,.66,.94,1.6,.94,2.82,0,1.6-.69,2.88-2.08,3.84s-3.28,1.44-5.66,1.44c-1.39,0-2.74-.18-4.06-.54Z"/><path class="cls-12" d="M495.5,22.98v3.49h-16.8V4.07h16.35v3.49h-12.19v5.82h10.82v3.42h-10.82v6.18h12.64Z"/><path class="cls-12" d="M510.32,26.47l-4.38-5.92-4.42,5.92h-4.42l6.66-8.67-6.37-8.42h4.45l4.19,5.6,4.19-5.6h4.32l-6.4,8.35,6.69,8.74h-4.51Z"/><path class="cls-12" d="M531.71,10.28c1.31,.73,2.34,1.75,3.09,3.07,.75,1.32,1.12,2.85,1.12,4.58s-.37,3.26-1.12,4.59c-.75,1.33-1.78,2.36-3.09,3.09-1.31,.73-2.8,1.09-4.46,1.09-2.3,0-4.13-.77-5.47-2.3v8.29h-4V9.38h3.81v2.24c.66-.81,1.48-1.42,2.45-1.82s2.04-.61,3.22-.61c1.66,0,3.15,.36,4.46,1.09Zm-1.28,11.52c.95-.98,1.42-2.27,1.42-3.87s-.48-2.89-1.42-3.87-2.16-1.47-3.63-1.47c-.96,0-1.82,.22-2.59,.66-.77,.44-1.38,1.06-1.82,1.87-.45,.81-.67,1.75-.67,2.82s.22,2.01,.67,2.82c.45,.81,1.06,1.43,1.82,1.87,.77,.44,1.63,.66,2.59,.66,1.47,0,2.68-.49,3.63-1.47Z"/><path class="cls-12" d="M555.73,19.21h-13.41c.23,1.26,.85,2.26,1.84,2.99,.99,.74,2.22,1.1,3.7,1.1,1.88,0,3.42-.62,4.64-1.86l2.14,2.46c-.77,.92-1.74,1.61-2.91,2.08-1.17,.47-2.5,.7-3.97,.7-1.88,0-3.53-.37-4.96-1.12-1.43-.75-2.53-1.79-3.31-3.12-.78-1.33-1.17-2.84-1.17-4.53s.38-3.16,1.14-4.5c.76-1.33,1.81-2.37,3.15-3.12,1.34-.75,2.86-1.12,4.54-1.12s3.15,.37,4.46,1.1c1.31,.74,2.34,1.77,3.07,3.1,.74,1.33,1.1,2.88,1.1,4.62,0,.28-.02,.67-.06,1.18Zm-11.82-5.68c-.89,.76-1.42,1.77-1.62,3.02h9.7c-.17-1.24-.69-2.24-1.57-3.01-.88-.77-1.96-1.15-3.26-1.15s-2.36,.38-3.25,1.14Z"/><path class="cls-12" d="M569.52,9.19v3.81c-.34-.06-.65-.1-.93-.1-1.56,0-2.77,.45-3.65,1.36-.88,.91-1.31,2.21-1.31,3.92v8.29h-4V9.38h3.81v2.5c1.15-1.79,3.18-2.69,6.08-2.69Z"/><path class="cls-12" d="M573.1,5.88c-.49-.46-.74-1.03-.74-1.71s.25-1.25,.74-1.71c.49-.46,1.1-.69,1.82-.69s1.33,.22,1.82,.66,.74,.99,.74,1.65c0,.7-.24,1.3-.72,1.78-.48,.48-1.09,.72-1.84,.72s-1.33-.23-1.82-.69Zm-.19,3.5h4V26.47h-4V9.38Z"/><path class="cls-12" d="M598.16,19.21h-13.41c.23,1.26,.85,2.26,1.84,2.99,.99,.74,2.22,1.1,3.7,1.1,1.88,0,3.42-.62,4.64-1.86l2.14,2.46c-.77,.92-1.74,1.61-2.91,2.08-1.17,.47-2.5,.7-3.97,.7-1.88,0-3.53-.37-4.96-1.12-1.43-.75-2.53-1.79-3.31-3.12-.78-1.33-1.17-2.84-1.17-4.53s.38-3.16,1.14-4.5c.76-1.33,1.81-2.37,3.15-3.12,1.34-.75,2.86-1.12,4.54-1.12s3.15,.37,4.46,1.1c1.31,.74,2.34,1.77,3.07,3.1,.74,1.33,1.1,2.88,1.1,4.62,0,.28-.02,.67-.06,1.18Zm-11.82-5.68c-.89,.76-1.42,1.77-1.62,3.02h9.7c-.17-1.24-.69-2.24-1.57-3.01-.88-.77-1.96-1.15-3.26-1.15s-2.36,.38-3.25,1.14Z"/><path class="cls-12" d="M616.94,11.08c1.3,1.26,1.95,3.12,1.95,5.6v9.79h-4v-9.28c0-1.49-.35-2.62-1.06-3.38-.71-.76-1.71-1.14-3.01-1.14-1.47,0-2.64,.44-3.49,1.33-.85,.89-1.28,2.16-1.28,3.82v8.64h-4V9.38h3.81v2.21c.66-.79,1.49-1.39,2.5-1.79s2.13-.61,3.39-.61c2.15,0,3.88,.63,5.18,1.89Z"/><path class="cls-12" d="M627.21,25.57c-1.41-.75-2.51-1.79-3.3-3.12-.79-1.33-1.18-2.84-1.18-4.53s.39-3.19,1.18-4.51c.79-1.32,1.88-2.36,3.28-3.1,1.4-.75,2.99-1.12,4.78-1.12,1.69,0,3.16,.34,4.43,1.02,1.27,.68,2.22,1.66,2.86,2.94l-3.07,1.79c-.49-.79-1.1-1.38-1.84-1.78s-1.54-.59-2.42-.59c-1.49,0-2.73,.49-3.71,1.46s-1.47,2.27-1.47,3.89,.48,2.92,1.46,3.89c.97,.97,2.21,1.46,3.73,1.46,.88,0,1.68-.2,2.42-.59s1.35-.99,1.84-1.78l3.07,1.79c-.66,1.28-1.63,2.27-2.9,2.96-1.27,.69-2.74,1.04-4.4,1.04-1.77,0-3.36-.37-4.77-1.12Z"/><path class="cls-12" d="M658.48,19.21h-13.41c.24,1.26,.85,2.26,1.84,2.99,.99,.74,2.22,1.1,3.7,1.1,1.88,0,3.42-.62,4.64-1.86l2.14,2.46c-.77,.92-1.74,1.61-2.91,2.08-1.17,.47-2.5,.7-3.97,.7-1.88,0-3.53-.37-4.96-1.12-1.43-.75-2.53-1.79-3.31-3.12-.78-1.33-1.17-2.84-1.17-4.53s.38-3.16,1.14-4.5c.76-1.33,1.81-2.37,3.15-3.12,1.34-.75,2.86-1.12,4.54-1.12s3.15,.37,4.46,1.1c1.31,.74,2.34,1.77,3.07,3.1,.74,1.33,1.1,2.88,1.1,4.62,0,.28-.02,.67-.06,1.18Zm-11.82-5.68c-.88,.76-1.42,1.77-1.62,3.02h9.7c-.17-1.24-.69-2.24-1.57-3.01-.88-.77-1.96-1.15-3.26-1.15s-2.36,.38-3.25,1.14Z"/><path class="cls-12" d="M683.52,11c1.33,1.21,2,3.02,2,5.46v10.02h-3.78v-2.08c-.49,.75-1.19,1.32-2.1,1.71-.91,.39-2,.59-3.28,.59s-2.4-.22-3.36-.66c-.96-.44-1.7-1.04-2.22-1.82-.52-.78-.78-1.66-.78-2.64,0-1.54,.57-2.77,1.71-3.7,1.14-.93,2.94-1.39,5.39-1.39h4.42v-.26c0-1.19-.36-2.11-1.07-2.75-.71-.64-1.78-.96-3.18-.96-.96,0-1.9,.15-2.83,.45-.93,.3-1.71,.71-2.35,1.25l-1.57-2.91c.9-.68,1.97-1.21,3.23-1.57,1.26-.36,2.59-.54,4-.54,2.52,0,4.44,.6,5.78,1.81Zm-3.65,12.1c.78-.46,1.33-1.11,1.65-1.97v-1.98h-4.13c-2.3,0-3.46,.76-3.46,2.27,0,.73,.29,1.3,.86,1.73s1.38,.64,2.4,.64,1.89-.23,2.67-.69Z"/><path class="cls-12" d="M704.57,10.28c1.31,.73,2.34,1.75,3.09,3.07,.75,1.32,1.12,2.85,1.12,4.58s-.37,3.26-1.12,4.59c-.75,1.33-1.78,2.36-3.09,3.09-1.31,.73-2.8,1.09-4.46,1.09-2.3,0-4.13-.77-5.47-2.3v8.29h-4V9.38h3.81v2.24c.66-.81,1.48-1.42,2.45-1.82s2.04-.61,3.22-.61c1.66,0,3.15,.36,4.46,1.09Zm-1.28,11.52c.95-.98,1.42-2.27,1.42-3.87s-.48-2.89-1.42-3.87-2.16-1.47-3.63-1.47c-.96,0-1.82,.22-2.59,.66-.77,.44-1.38,1.06-1.82,1.87-.45,.81-.67,1.75-.67,2.82s.22,2.01,.67,2.82c.45,.81,1.06,1.43,1.82,1.87,.77,.44,1.63,.66,2.59,.66,1.47,0,2.68-.49,3.63-1.47Z"/><path class="cls-12" d="M726.52,10.28c1.31,.73,2.34,1.75,3.09,3.07,.75,1.32,1.12,2.85,1.12,4.58s-.37,3.26-1.12,4.59c-.75,1.33-1.78,2.36-3.09,3.09-1.31,.73-2.8,1.09-4.46,1.09-2.3,0-4.13-.77-5.47-2.3v8.29h-4V9.38h3.81v2.24c.66-.81,1.48-1.42,2.45-1.82s2.04-.61,3.22-.61c1.66,0,3.15,.36,4.46,1.09Zm-1.28,11.52c.95-.98,1.42-2.27,1.42-3.87s-.47-2.89-1.42-3.87-2.16-1.47-3.63-1.47c-.96,0-1.82,.22-2.59,.66-.77,.44-1.38,1.06-1.82,1.87-.45,.81-.67,1.75-.67,2.82s.22,2.01,.67,2.82c.45,.81,1.06,1.43,1.82,1.87,.77,.44,1.63,.66,2.59,.66,1.47,0,2.68-.49,3.63-1.47Z"/><g><g><g><path class="cls-8" d="M404.84,54.52H188.55c-.79,0-1.57,0-2.35,0-.66,0-1.31,.02-1.98,.03-1.43,.04-2.88,.12-4.31,.38-1.44,.25-2.78,.68-4.09,1.35-1.29,.66-2.46,1.52-3.48,2.53-1.03,1.02-1.88,2.2-2.53,3.49-.67,1.31-1.09,2.65-1.34,4.09-.26,1.42-.35,2.86-.39,4.3-.02,.66-.02,1.32-.03,1.98v49.7c.01,.67,.01,1.31,.03,1.98,.04,1.44,.13,2.88,.39,4.3,.25,1.44,.68,2.79,1.34,4.09,.65,1.28,1.5,2.46,2.53,3.47,1.02,1.03,2.19,1.88,3.48,2.53,1.31,.67,2.65,1.1,4.09,1.36,1.43,.26,2.88,.34,4.31,.38,.66,.01,1.32,.02,1.98,.02,.79,0,1.57,0,2.35,0h216.29c.77,0,1.56,0,2.33,0,.66,0,1.33,0,1.98-.02,1.44-.04,2.88-.12,4.3-.38,1.44-.26,2.78-.68,4.1-1.36,1.28-.65,2.46-1.51,3.48-2.53,1.02-1.01,1.88-2.19,2.54-3.47,.66-1.3,1.09-2.65,1.33-4.09,.26-1.42,.35-2.86,.4-4.3,0-.67,0-1.31,0-1.98,.02-.78,.02-1.56,.02-2.35v-45c0-.79,0-1.57-.02-2.35,0-.66,0-1.32,0-1.98-.05-1.44-.13-2.88-.4-4.3-.24-1.44-.67-2.78-1.33-4.09-.66-1.29-1.52-2.47-2.54-3.49-1.02-1.02-2.19-1.87-3.48-2.53-1.32-.67-2.66-1.1-4.1-1.35-1.42-.26-2.86-.34-4.3-.38-.66-.01-1.33-.02-1.98-.03-.77,0-1.56,0-2.33,0h0Z"/><path d="M186.2,138.64c-.66,0-1.29,0-1.94-.02-1.2-.03-2.63-.1-4.02-.35-1.31-.24-2.48-.62-3.56-1.18-1.12-.57-2.13-1.3-3-2.19-.89-.87-1.62-1.88-2.19-3-.56-1.09-.94-2.25-1.17-3.56-.26-1.45-.33-2.91-.36-4.03-.01-.45-.03-1.96-.03-1.96v-49.67s.02-1.49,.03-1.92c.03-1.13,.1-2.59,.36-4.02,.23-1.32,.61-2.48,1.17-3.57,.57-1.13,1.3-2.14,2.18-3.01,.89-.89,1.9-1.63,3.02-2.2,1.1-.56,2.27-.94,3.55-1.17,1.45-.26,2.92-.32,4.03-.35l1.94-.03h220.95l1.96,.03c1.1,.03,2.57,.09,4,.35,1.3,.23,2.47,.61,3.59,1.18,1.1,.56,2.11,1.3,2.99,2.18,.88,.87,1.62,1.89,2.2,3.02,.55,1.1,.93,2.26,1.15,3.55,.25,1.36,.33,2.75,.37,4.06,0,.61,0,1.26,0,1.91,.02,.81,.02,1.57,.02,2.35v45c0,.78,0,1.54-.02,2.31,0,.7,0,1.34,0,2-.04,1.27-.12,2.66-.37,3.99-.22,1.32-.6,2.48-1.16,3.59-.58,1.12-1.32,2.13-2.18,2.98-.89,.9-1.9,1.63-3.01,2.2-1.11,.57-2.25,.94-3.59,1.18-1.38,.25-2.8,.32-4.02,.35-.63,.01-1.29,.02-1.93,.02h-2.33s-218.63,0-218.63,0Z"/></g><g><g><path class="cls-1" d="M221.3,98.16c-.05-5.91,4.84-8.79,5.07-8.93-2.77-4.04-7.07-4.6-8.58-4.64-3.61-.38-7.11,2.16-8.95,2.16s-4.71-2.12-7.76-2.06c-3.93,.06-7.6,2.33-9.62,5.86-4.16,7.2-1.06,17.78,2.93,23.6,1.99,2.85,4.32,6.03,7.37,5.92,2.98-.12,4.1-1.9,7.7-1.9s4.61,1.9,7.72,1.83c3.2-.05,5.22-2.86,7.14-5.74,2.3-3.27,3.23-6.48,3.26-6.65-.07-.03-6.22-2.37-6.28-9.46Z"/><path class="cls-1" d="M215.43,80.77c1.6-2.01,2.7-4.73,2.4-7.5-2.32,.1-5.23,1.6-6.9,3.57-1.48,1.73-2.8,4.56-2.46,7.23,2.61,.19,5.29-1.32,6.96-3.29Z"/></g><g><path class="cls-1" d="M259,112.87h-10.18l-2.44,7.22h-4.31l9.64-26.7h4.48l9.64,26.7h-4.38l-2.44-7.22Zm-9.12-3.33h8.07l-3.98-11.71h-.11l-3.98,11.71Z"/><path class="cls-1" d="M286.64,110.35c0,6.05-3.24,9.94-8.12,9.94-2.77,0-4.98-1.24-6.12-3.41h-.09v9.64h-4v-25.9h3.87v3.24h.07c1.11-2.09,3.48-3.44,6.2-3.44,4.94,0,8.2,3.91,8.2,9.94Zm-4.11,0c0-3.94-2.04-6.53-5.14-6.53s-5.11,2.65-5.11,6.53,2.05,6.55,5.11,6.55,5.14-2.57,5.14-6.55Z"/><path class="cls-1" d="M308.07,110.35c0,6.05-3.24,9.94-8.12,9.94-2.77,0-4.98-1.24-6.12-3.41h-.09v9.64h-4v-25.9h3.87v3.24h.07c1.11-2.09,3.48-3.44,6.2-3.44,4.94,0,8.2,3.91,8.2,9.94Zm-4.11,0c0-3.94-2.04-6.53-5.14-6.53s-5.11,2.65-5.11,6.53,2.05,6.55,5.11,6.55,5.14-2.57,5.14-6.55Z"/><path class="cls-1" d="M322.22,112.64c.3,2.65,2.87,4.39,6.38,4.39s5.79-1.74,5.79-4.13c0-2.07-1.46-3.31-4.92-4.16l-3.46-.83c-4.9-1.18-7.18-3.48-7.18-7.2,0-4.61,4.01-7.77,9.71-7.77s9.51,3.16,9.64,7.77h-4.03c-.24-2.66-2.44-4.27-5.66-4.27s-5.42,1.63-5.42,4c0,1.89,1.41,3,4.85,3.85l2.94,.72c5.48,1.3,7.75,3.5,7.75,7.4,0,4.99-3.98,8.12-10.31,8.12-5.92,0-9.92-3.05-10.18-7.88h4.09Z"/><path class="cls-1" d="M347.24,96.01v4.61h3.7v3.16h-3.7v10.73c0,1.67,.74,2.44,2.37,2.44,.41,0,1.06-.06,1.31-.09v3.15c-.44,.11-1.33,.18-2.22,.18-3.94,0-5.48-1.48-5.48-5.26v-11.16h-2.83v-3.16h2.83v-4.61h4.01Z"/><path class="cls-1" d="M353.09,110.35c0-6.12,3.61-9.97,9.23-9.97s9.23,3.85,9.23,9.97-3.57,9.97-9.23,9.97-9.23-3.83-9.23-9.97Zm14.39,0c0-4.2-1.93-6.68-5.16-6.68s-5.16,2.5-5.16,6.68,1.92,6.68,5.16,6.68,5.16-2.46,5.16-6.68Z"/><path class="cls-1" d="M374.85,100.62h3.81v3.31h.09c.61-2.2,2.39-3.52,4.68-3.52,.57,0,1.05,.08,1.37,.15v3.74c-.31-.13-1.02-.24-1.8-.24-2.57,0-4.16,1.74-4.16,4.48v11.55h-4v-19.47Z"/><path class="cls-1" d="M403.22,114.37c-.54,3.53-3.98,5.96-8.38,5.96-5.66,0-9.18-3.79-9.18-9.88s3.53-10.07,9.01-10.07,8.77,3.7,8.77,9.6v1.37h-13.75v.24c0,3.33,2.09,5.51,5.24,5.51,2.22,0,3.96-1.05,4.5-2.74h3.79Zm-13.51-5.81h9.73c-.09-2.98-2-4.94-4.77-4.94s-4.75,2-4.96,4.94Z"/></g></g></g><g><path class="cls-1" d="M249.37,73.29c3.8,0,6.04,2.34,6.04,6.37s-2.22,6.45-6.04,6.45h-4.63v-12.83h4.63Zm-2.64,11.01h2.42c2.68,0,4.23-1.67,4.23-4.61s-1.57-4.59-4.23-4.59h-2.42v9.2Z"/><path class="cls-1" d="M257.66,81.27c0-3.12,1.74-5.02,4.57-5.02s4.56,1.9,4.56,5.02-1.73,5.03-4.56,5.03-4.57-1.89-4.57-5.03Zm7.17,0c0-2.1-.94-3.33-2.6-3.33s-2.6,1.23-2.6,3.33,.93,3.33,2.6,3.33,2.6-1.23,2.6-3.33Z"/><path class="cls-1" d="M278.93,86.12h-1.98l-2-7.13h-.15l-1.99,7.13h-1.96l-2.67-9.68h1.94l1.73,7.39h.14l1.99-7.39h1.83l1.99,7.39h.15l1.73-7.39h1.91l-2.66,9.68Z"/><path class="cls-1" d="M283.83,76.44h1.84v1.54h.14c.47-1.08,1.43-1.72,2.89-1.72,2.16,0,3.35,1.3,3.35,3.6v6.27h-1.91v-5.79c0-1.56-.68-2.33-2.09-2.33s-2.31,.94-2.31,2.45v5.66h-1.91v-9.68Z"/><path class="cls-1" d="M295.1,72.66h1.91v13.46h-1.91v-13.46Z"/><path class="cls-1" d="M299.67,81.27c0-3.12,1.74-5.02,4.57-5.02s4.56,1.9,4.56,5.02-1.74,5.03-4.56,5.03-4.57-1.89-4.57-5.03Zm7.17,0c0-2.1-.94-3.33-2.6-3.33s-2.6,1.23-2.6,3.33,.93,3.33,2.6,3.33,2.6-1.23,2.6-3.33Z"/><path class="cls-1" d="M310.81,83.38c0-1.74,1.3-2.75,3.6-2.89l2.62-.15v-.84c0-1.02-.68-1.6-1.98-1.6-1.07,0-1.81,.39-2.02,1.08h-1.85c.2-1.66,1.76-2.73,3.96-2.73,2.43,0,3.8,1.21,3.8,3.25v6.61h-1.84v-1.36h-.15c-.58,.97-1.64,1.52-2.91,1.52-1.87,0-3.23-1.13-3.23-2.9Zm6.22-.83v-.81l-2.36,.15c-1.33,.09-1.94,.54-1.94,1.4s.76,1.38,1.8,1.38c1.44,0,2.51-.92,2.51-2.12Z"/><path class="cls-1" d="M321.45,81.27c0-3.06,1.57-5,4.02-5,1.32,0,2.44,.63,2.97,1.7h.14v-5.32h1.91v13.46h-1.83v-1.53h-.15c-.58,1.06-1.71,1.69-3.04,1.69-2.46,0-4.02-1.94-4.02-5Zm1.97,0c0,2.05,.97,3.29,2.59,3.29s2.61-1.25,2.61-3.28-1.01-3.29-2.61-3.29-2.59,1.24-2.59,3.28Z"/><path class="cls-1" d="M338.39,81.27c0-3.12,1.74-5.02,4.57-5.02s4.56,1.9,4.56,5.02-1.73,5.03-4.56,5.03-4.57-1.89-4.57-5.03Zm7.17,0c0-2.1-.94-3.33-2.6-3.33s-2.6,1.23-2.6,3.33,.93,3.33,2.6,3.33,2.6-1.23,2.6-3.33Z"/><path class="cls-1" d="M350.09,76.44h1.84v1.54h.14c.47-1.08,1.43-1.72,2.89-1.72,2.16,0,3.35,1.3,3.35,3.6v6.27h-1.91v-5.79c0-1.56-.68-2.33-2.09-2.33s-2.31,.94-2.31,2.45v5.66h-1.91v-9.68Z"/><path class="cls-1" d="M369.1,74.03v2.45h2.1v1.61h-2.1v4.98c0,1.01,.42,1.46,1.37,1.46,.29,0,.46-.02,.73-.04v1.59c-.31,.05-.67,.1-1.04,.1-2.12,0-2.97-.75-2.97-2.61v-5.47h-1.54v-1.61h1.54v-2.45h1.91Z"/><path class="cls-1" d="M373.81,72.66h1.89v5.34h.15c.47-1.09,1.49-1.73,2.95-1.73,2.06,0,3.33,1.31,3.33,3.61v6.25h-1.91v-5.78c0-1.55-.72-2.33-2.07-2.33-1.57,0-2.44,.99-2.44,2.45v5.65h-1.91v-13.46Z"/><path class="cls-1" d="M393.28,83.5c-.43,1.73-1.98,2.8-4.2,2.8-2.77,0-4.47-1.9-4.47-5s1.73-5.06,4.46-5.06,4.32,1.84,4.32,4.88v.67h-6.84v.11c.06,1.7,1.05,2.77,2.58,2.77,1.16,0,1.95-.42,2.3-1.17h1.84Zm-6.72-3.12h4.89c-.04-1.52-.97-2.51-2.38-2.51s-2.4,1-2.51,2.51Z"/></g></g><g><rect x="455.05" y="54.52" width="290.25" height="86" rx="10.75" ry="10.75"/><path class="cls-4" d="M734.55,56.24c4.98,0,9.03,4.05,9.03,9.03v64.5c0,4.98-4.05,9.03-9.03,9.03H465.8c-4.98,0-9.03-4.05-9.03-9.03V65.27c0-4.98,4.05-9.03,9.03-9.03h268.75m0-1.72H465.8c-5.91,0-10.75,4.84-10.75,10.75v64.5c0,5.91,4.84,10.75,10.75,10.75h268.75c5.91,0,10.75-4.84,10.75-10.75V65.27c0-5.91-4.84-10.75-10.75-10.75h0Z"/><g><path class="cls-2" d="M557,76.54c0,1.8-.53,3.24-1.6,4.31-1.2,1.27-2.78,1.91-4.74,1.91s-3.46-.65-4.76-1.95c-1.3-1.3-1.94-2.89-1.94-4.79s.65-3.5,1.94-4.79c1.3-1.3,2.88-1.95,4.76-1.95,.95,0,1.84,.17,2.68,.5,.84,.34,1.53,.81,2.07,1.42l-1.19,1.19c-.4-.48-.91-.86-1.54-1.13-.63-.27-1.31-.41-2.03-.41-1.41,0-2.6,.49-3.57,1.46-.96,.98-1.44,2.22-1.44,3.69s.48,2.71,1.44,3.69c.97,.97,2.16,1.46,3.57,1.46,1.28,0,2.35-.36,3.21-1.08,.85-.72,1.35-1.71,1.48-2.97h-4.68v-1.55h6.25c.06,.34,.09,.66,.09,.97Z"/><path class="cls-2" d="M566.91,69.57v1.59h-5.87v4.09h5.3v1.55h-5.3v4.09h5.87v1.59h-7.53v-12.9h7.53Z"/><path class="cls-2" d="M573.9,71.15v11.31h-1.66v-11.31h-3.6v-1.59h8.86v1.59h-3.6Z"/><path class="cls-2" d="M585.57,82.47h-1.66v-12.9h1.66v12.9Z"/><path class="cls-2" d="M592.92,71.15v11.31h-1.66v-11.31h-3.6v-1.59h8.86v1.59h-3.6Z"/><path class="cls-2" d="M615.21,76.02c0,1.91-.64,3.51-1.91,4.79-1.29,1.3-2.86,1.95-4.72,1.95s-3.45-.65-4.72-1.95c-1.27-1.28-1.91-2.88-1.91-4.79s.64-3.51,1.91-4.79c1.27-1.3,2.85-1.95,4.72-1.95s3.45,.66,4.72,1.96c1.27,1.28,1.91,2.88,1.91,4.77Zm-11.57,0c0,1.49,.47,2.72,1.4,3.69,.95,.97,2.13,1.46,3.53,1.46s2.58-.49,3.51-1.46c.95-.96,1.42-2.19,1.42-3.69s-.47-2.73-1.42-3.69c-.94-.97-2.11-1.46-3.51-1.46s-2.58,.49-3.53,1.46c-.94,.97-1.4,2.2-1.4,3.69Z"/><path class="cls-2" d="M619.19,82.47h-1.66v-12.9h2.02l6.27,10.04h.07l-.07-2.49v-7.55h1.66v12.9h-1.73l-6.56-10.52h-.07l.07,2.49v8.04Z"/></g><path class="cls-1" d="M601.54,101.28c-5.06,0-9.18,3.84-9.18,9.14s4.12,9.14,9.18,9.14,9.18-3.88,9.18-9.14-4.12-9.14-9.18-9.14Zm0,14.69c-2.77,0-5.16-2.29-5.16-5.54s2.39-5.54,5.16-5.54,5.16,2.25,5.16,5.54-2.39,5.54-5.16,5.54Zm-20.02-14.69c-5.06,0-9.18,3.84-9.18,9.14s4.12,9.14,9.18,9.14,9.18-3.88,9.18-9.14-4.12-9.14-9.18-9.14Zm0,14.69c-2.77,0-5.16-2.29-5.16-5.54s2.39-5.54,5.16-5.54,5.16,2.25,5.16,5.54-2.39,5.54-5.16,5.54Zm-23.82-11.88v3.88h9.28c-.28,2.18-1,3.78-2.11,4.88-1.35,1.35-3.46,2.84-7.17,2.84-5.72,0-10.18-4.61-10.18-10.32s4.47-10.32,10.18-10.32c3.08,0,5.33,1.21,7,2.77l2.74-2.74c-2.32-2.22-5.4-3.91-9.73-3.91-7.83,0-14.41,6.37-14.41,14.2s6.58,14.2,14.41,14.2c4.23,0,7.41-1.39,9.91-3.98,2.56-2.56,3.36-6.17,3.36-9.07,0-.9-.07-1.73-.21-2.42h-13.06Zm97.41,3.01c-.76-2.04-3.08-5.82-7.83-5.82s-8.62,3.71-8.62,9.14c0,5.13,3.88,9.14,9.07,9.14,4.19,0,6.62-2.56,7.62-4.05l-3.12-2.08c-1.04,1.52-2.46,2.53-4.5,2.53s-3.5-.94-4.43-2.77l12.23-5.06-.42-1.04Zm-12.47,3.05c-.1-3.53,2.74-5.33,4.78-5.33,1.59,0,2.94,.8,3.39,1.94l-8.17,3.39Zm-9.94,8.87h4.02v-26.88h-4.02v26.88Zm-6.58-15.69h-.14c-.9-1.07-2.63-2.04-4.81-2.04-4.57,0-8.76,4.02-8.76,9.18s4.19,9.11,8.76,9.11c2.18,0,3.91-.97,4.81-2.08h.14v1.32c0,3.5-1.87,5.37-4.88,5.37-2.46,0-3.98-1.77-4.61-3.26l-3.5,1.45c1,2.42,3.67,5.4,8.11,5.4,4.71,0,8.69-2.77,8.69-9.53v-16.42h-3.81v1.49Zm-4.61,12.64c-2.77,0-5.09-2.32-5.09-5.51s2.32-5.58,5.09-5.58,4.88,2.36,4.88,5.58-2.15,5.51-4.88,5.51Zm52.42-23.83h-9.61v26.88h4.01v-10.18h5.6c4.45,0,8.82-3.22,8.82-8.35s-4.37-8.35-8.82-8.35Zm.1,12.95h-5.71v-9.21h5.71c3,0,4.7,2.48,4.7,4.61s-1.7,4.61-4.7,4.61Zm24.79-3.86c-2.9,0-5.91,1.28-7.16,4.11l3.56,1.49c.76-1.49,2.18-1.97,3.67-1.97,2.07,0,4.18,1.24,4.22,3.46v.28c-.73-.41-2.28-1.04-4.18-1.04-3.84,0-7.75,2.11-7.75,6.05,0,3.6,3.15,5.91,6.67,5.91,2.7,0,4.18-1.21,5.12-2.63h.14v2.07h3.87v-10.3c0-4.77-3.56-7.43-8.16-7.43Zm-.48,14.73c-1.31,0-3.15-.66-3.15-2.28,0-2.07,2.28-2.87,4.25-2.87,1.76,0,2.59,.38,3.67,.9-.31,2.49-2.46,4.25-4.77,4.25Zm22.75-14.14l-4.6,11.65h-.14l-4.77-11.65h-4.32l7.16,16.29-4.08,9.06h4.18l11.03-25.35h-4.46Zm-36.13,17.2h4.01v-26.88h-4.01v26.88Z"/><g><path class="cls-11" d="M499.59,96.28l-22.89,24.29s0,0,0,.01c.7,2.64,3.11,4.58,5.97,4.58,1.14,0,2.22-.31,3.14-.85l.07-.04,25.77-14.87-12.06-13.13Z"/><path class="cls-6" d="M522.75,92.14h-.02s-11.12-6.46-11.12-6.46l-12.53,11.15,12.58,12.57,11.06-6.38c1.94-1.05,3.26-3.09,3.26-5.45s-1.3-4.38-3.22-5.43Z"/><path class="cls-7" d="M476.7,74.46c-.14,.51-.21,1.04-.21,1.59v42.93c0,.55,.07,1.08,.21,1.59l23.68-23.67-23.68-22.44Z"/><path class="cls-9" d="M499.76,97.52l11.85-11.84-25.74-14.92c-.94-.56-2.03-.88-3.19-.88-2.86,0-5.27,1.95-5.97,4.59,0,0,0,0,0,0l23.06,23.06Z"/></g></g><g id="Rectangle_2441"><rect class="cls-1" width="140" height="140" rx="20" ry="20"/><rect class="cls-10" x=".5" y=".5" width="139" height="139" rx="19.5" ry="19.5"/></g><path id="Rectangle_3150" d="M0,110H140v10c0,11.05-8.95,20-20,20H20c-11.05,0-20-8.95-20-20v-10H0Z"/><g class="cls-5"><path class="cls-1" d="M41.02,127.98h-4.47l-.67,2.02h-2.39l3.92-11.2h2.74l3.94,11.2h-2.4l-.67-2.02Zm-.69-2.07l-1.54-4.58-1.54,4.58h3.07Z"/><path class="cls-1" d="M51.66,127.89v2.11h-6.48v-11.2h2.21v9.09h4.27Z"/><path class="cls-1" d="M59.39,127.89v2.11h-6.48v-11.2h2.21v9.09h4.27Z"/><path class="cls-1" d="M59.99,124.17h6v1.98h-6v-1.98Z"/><path class="cls-1" d="M76.76,118.8v11.2h-1.68l-4.8-6.85v6.85h-2.21v-11.2h1.68l4.8,6.83v-6.83h2.21Z"/><path class="cls-1" d="M85.77,127.89v2.11h-6.93v-11.2h6.85v2.11h-4.64v2.38h4.24v2.08h-4.24v2.51h4.72Z"/><path class="cls-1" d="M86.52,118.8h2.32l2.15,8.31,2.34-8.31h1.89l2.35,8.31,2.14-8.31h2.32l-3.14,11.2h-2.51l-2.11-7.39-2.1,7.39h-2.51l-3.14-11.2Z"/><path class="cls-1" d="M103.05,128.85c0-.75,.61-1.36,1.36-1.36s1.36,.61,1.36,1.36-.61,1.36-1.36,1.36-1.36-.61-1.36-1.36Zm.11-6.85v-3.2h2.48v3.2l-.42,4.24h-1.63l-.43-4.24Z"/></g><g id="Group_8010"><path id="Path_940" class="cls-13" d="M95.96,68.8l9.67-24.53h-8.92l-5.12,14.2m-6.57,15.86l-9.13,23.41h8.66l4.76-13.01"/><path id="Path_941" class="cls-3" d="M80.04,40.35c.02,1.23-.46,2.42-1.34,3.29-.85,.89-2.03,1.39-3.26,1.37h-4.87V27.89h4.86c3.07,0,4.61,1.55,4.61,4.65v7.81h0Zm-17.54-20.69v53.46h8.06v-20.14h5.38l18.65,44.75h8.72l-19.73-47.96c2.78-2.41,4.36-5.92,4.31-9.6v-7.76c0-3.87-.92-6.88-2.77-9.05-2.1-2.47-5.4-3.71-9.9-3.71h-12.71Zm-20.44,30.76h10.88v-8.1h-10.88v-14.6h14.89v-8.1h-22.96v53.5h8.06v-22.7h0Z"/></g></svg>